<svg width="146" height="31" viewBox="0 0 146 31" fill="none" xmlns="http://www.w3.org/2000/svg">
<path d="M7.54261 30H0.951705L10.9943 0.90909H18.9205L28.9489 30H22.358L15.071 7.55682H14.8438L7.54261 30ZM7.13068 18.5653H22.6989V23.3665H7.13068V18.5653ZM49.5675 9.27557C49.4538 8.12973 48.9661 7.23958 48.1044 6.60511C47.2427 5.97064 46.0732 5.65341 44.5959 5.65341C43.5921 5.65341 42.7446 5.79545 42.0533 6.07955C41.362 6.35417 40.8317 6.73769 40.4624 7.23011C40.1025 7.72254 39.9226 8.28125 39.9226 8.90625C39.9036 9.42708 40.0125 9.88163 40.2493 10.2699C40.4955 10.6581 40.8317 10.9943 41.2578 11.2784C41.6839 11.553 42.1764 11.7945 42.7351 12.0028C43.2938 12.2017 43.8904 12.3722 44.5249 12.5142L47.1385 13.1392C48.4074 13.4233 49.5722 13.8021 50.6328 14.2756C51.6934 14.7491 52.612 15.3314 53.3885 16.0227C54.165 16.714 54.7663 17.5284 55.1925 18.4659C55.6281 19.4034 55.8506 20.4782 55.8601 21.6903C55.8506 23.4706 55.3961 25.0142 54.4964 26.321C53.6063 27.6184 52.3184 28.6269 50.6328 29.3466C48.9567 30.0568 46.9349 30.4119 44.5675 30.4119C42.219 30.4119 40.1735 30.0521 38.4311 29.3324C36.6982 28.6127 35.344 27.5473 34.3686 26.1364C33.4027 24.7159 32.8961 22.9593 32.8487 20.8665H38.8004C38.8667 21.8419 39.1461 22.6562 39.6385 23.3097C40.1404 23.9536 40.808 24.4413 41.6413 24.7727C42.4841 25.0947 43.4358 25.2557 44.4964 25.2557C45.5381 25.2557 46.4425 25.1042 47.2095 24.8011C47.986 24.4981 48.5874 24.0767 49.0135 23.5369C49.4396 22.9972 49.6527 22.3769 49.6527 21.6761C49.6527 21.0227 49.4586 20.4735 49.0703 20.0284C48.6915 19.5833 48.1328 19.2045 47.3942 18.892C46.665 18.5795 45.7701 18.2955 44.7095 18.0398L41.5419 17.2443C39.0893 16.6477 37.1527 15.715 35.7322 14.446C34.3118 13.1771 33.6063 11.4678 33.6158 9.31818C33.6063 7.55682 34.075 6.01799 35.022 4.7017C35.9785 3.38542 37.29 2.35795 38.9567 1.61932C40.6233 0.880681 42.5173 0.511363 44.6385 0.511363C46.7976 0.511363 48.6821 0.880681 50.2919 1.61932C51.9112 2.35795 53.1707 3.38542 54.0703 4.7017C54.9699 6.01799 55.4339 7.54261 55.4624 9.27557H49.5675ZM60.8892 5.98011V0.90909H84.7812V5.98011H75.875V30H69.7955V5.98011H60.8892ZM90.7159 30V0.90909H102.193C104.39 0.90909 106.265 1.30208 107.818 2.08807C109.381 2.86458 110.569 3.9678 111.384 5.39773C112.207 6.81818 112.619 8.48958 112.619 10.4119C112.619 12.3437 112.203 14.0057 111.369 15.3977C110.536 16.7803 109.329 17.8409 107.747 18.5795C106.175 19.3182 104.272 19.6875 102.037 19.6875H94.3523V14.7443H101.043C102.217 14.7443 103.192 14.5833 103.969 14.2614C104.745 13.9394 105.323 13.4564 105.702 12.8125C106.09 12.1686 106.284 11.3684 106.284 10.4119C106.284 9.44602 106.09 8.63163 105.702 7.96875C105.323 7.30587 104.741 6.80398 103.955 6.46307C103.178 6.11269 102.198 5.9375 101.014 5.9375H96.8665V30H90.7159ZM106.426 16.7614L113.656 30H106.866L99.7926 16.7614H106.426ZM145.699 15.4545C145.699 18.6269 145.098 21.3258 143.895 23.5511C142.702 25.7765 141.073 27.4763 139.009 28.6506C136.954 29.8153 134.643 30.3977 132.077 30.3977C129.491 30.3977 127.171 29.8106 125.116 28.6364C123.062 27.4621 121.438 25.7623 120.244 23.5369C119.051 21.3116 118.455 18.6174 118.455 15.4545C118.455 12.2822 119.051 9.58333 120.244 7.35795C121.438 5.13258 123.062 3.4375 125.116 2.27273C127.171 1.09848 129.491 0.511363 132.077 0.511363C134.643 0.511363 136.954 1.09848 139.009 2.27273C141.073 3.4375 142.702 5.13258 143.895 7.35795C145.098 9.58333 145.699 12.2822 145.699 15.4545ZM139.463 15.4545C139.463 13.3996 139.155 11.6667 138.54 10.2557C137.934 8.8447 137.077 7.77462 135.969 7.04545C134.861 6.31629 133.563 5.9517 132.077 5.9517C130.59 5.9517 129.293 6.31629 128.185 7.04545C127.077 7.77462 126.215 8.8447 125.599 10.2557C124.993 11.6667 124.69 13.3996 124.69 15.4545C124.69 17.5095 124.993 19.2424 125.599 20.6534C126.215 22.0644 127.077 23.1345 128.185 23.8636C129.293 24.5928 130.59 24.9574 132.077 24.9574C133.563 24.9574 134.861 24.5928 135.969 23.8636C137.077 23.1345 137.934 22.0644 138.54 20.6534C139.155 19.2424 139.463 17.5095 139.463 15.4545Z" fill="black"/>
</svg>
